<svg width="176" height="48" viewBox="0 0 176 48" fill="none" xmlns="http://www.w3.org/2000/svg">
<g clip-path="url(#clip0_164_6110)" filter="url(#filter0_d_164_6110)">
<path d="M55.25 27.4517H67.0614V23.9395H59.448V10.7102H55.25V27.4517Z" fill="white" fill-opacity="0.8"/>
<path d="M74.0591 25.1101C72.3752 25.1101 71.4976 23.6584 71.4976 21.4809C71.4976 19.3033 72.3752 17.8282 74.0591 17.8282C75.7431 17.8282 76.6444 19.3033 76.6444 21.4809C76.6444 23.6584 75.7431 25.1101 74.0591 25.1101ZM74.0829 27.8262C77.9963 27.8262 80.5578 25.0867 80.5578 21.4809C80.5578 17.875 77.9963 15.1355 74.0829 15.1355C70.1932 15.1355 67.5842 17.875 67.5842 21.4809C67.5842 25.0867 70.1932 27.8262 74.0829 27.8262Z" fill="white" fill-opacity="0.8"/>
<path d="M87.3317 31.5962C89.1342 31.5962 90.7233 31.1982 91.7906 30.2616C92.763 29.3952 93.4034 28.084 93.4034 26.2811V15.4635H89.7034V16.7513H89.656C88.9445 15.7445 87.8535 15.1123 86.2407 15.1123C83.2285 15.1123 81.1414 17.5943 81.1414 21.1065C81.1414 24.7826 83.6791 26.7962 86.4067 26.7962C87.8772 26.7962 88.8022 26.2108 89.5137 25.4147H89.6086V26.6089C89.6086 28.0606 88.9207 28.9035 87.2842 28.9035C86.0035 28.9035 85.3631 28.365 85.1496 27.7328H81.4023C81.7817 30.2382 83.9875 31.5962 87.3317 31.5962ZM87.3079 23.963C85.8612 23.963 84.9125 22.7923 84.9125 20.9894C84.9125 19.163 85.8612 17.9923 87.3079 17.9923C88.9207 17.9923 89.7746 19.3504 89.7746 20.966C89.7746 22.6518 88.9919 23.963 87.3079 23.963Z" fill="white" fill-opacity="0.8"/>
<path d="M101.011 25.1101C99.3271 25.1101 98.4495 23.6584 98.4495 21.4809C98.4495 19.3033 99.3271 17.8282 101.011 17.8282C102.695 17.8282 103.596 19.3033 103.596 21.4809C103.596 23.6584 102.695 25.1101 101.011 25.1101ZM101.035 27.8262C104.948 27.8262 107.51 25.0867 107.51 21.4809C107.51 17.875 104.948 15.1355 101.035 15.1355C97.1451 15.1355 94.5361 17.875 94.5361 21.4809C94.5361 25.0867 97.1451 27.8262 101.035 27.8262Z" fill="white" fill-opacity="0.8"/>
<path d="M108.638 27.4517H112.504V15.4634H108.638V27.4517ZM108.638 13.8009H112.504V10.7102H108.638V13.8009Z" fill="white" fill-opacity="0.8"/>
<path d="M114.182 31.4089H118.048V26.2108H118.096C118.855 27.2177 119.969 27.8265 121.535 27.8265C124.713 27.8265 126.824 25.3445 126.824 21.4577C126.824 17.8518 124.855 15.1123 121.63 15.1123C119.969 15.1123 118.783 15.8382 117.953 16.9152H117.882V15.4635H114.182V31.4089ZM120.539 24.8762C118.878 24.8762 117.93 23.5416 117.93 21.5982C117.93 19.6547 118.783 18.1796 120.467 18.1796C122.128 18.1796 122.91 19.5377 122.91 21.5982C122.91 23.6352 122.009 24.8762 120.539 24.8762Z" fill="white" fill-opacity="0.8"/>
<path d="M133.118 27.8264C136.296 27.8264 138.644 26.4684 138.644 23.846C138.644 20.7786 136.13 20.2401 133.995 19.8889C132.454 19.6079 131.078 19.4908 131.078 18.6479C131.078 17.8986 131.813 17.5474 132.762 17.5474C133.829 17.5474 134.565 17.8752 134.707 18.9523H138.265C138.075 16.5874 136.225 15.1123 132.786 15.1123C129.916 15.1123 127.544 16.4235 127.544 18.9523C127.544 21.7621 129.797 22.324 131.908 22.6752C133.521 22.9562 134.992 23.0733 134.992 24.1504C134.992 24.923 134.256 25.3445 133.094 25.3445C131.813 25.3445 131.007 24.7591 130.865 23.565H127.212C127.331 26.2108 129.56 27.8264 133.118 27.8264Z" fill="white" fill-opacity="0.8"/>
<path d="M143.896 27.8029C145.579 27.8029 146.647 27.1473 147.524 25.9765H147.595V27.4517H151.295V15.4634H147.429V22.16C147.429 23.5883 146.623 24.5717 145.295 24.5717C144.062 24.5717 143.469 23.8458 143.469 22.5346V15.4634H139.626V23.3307C139.626 26 141.097 27.8029 143.896 27.8029Z" fill="white" fill-opacity="0.8"/>
<path d="M152.976 27.4518H156.842V20.7318C156.842 19.3035 157.554 18.2967 158.764 18.2967C159.926 18.2967 160.471 19.046 160.471 20.3338V27.4518H164.337V20.7318C164.337 19.3035 165.025 18.2967 166.258 18.2967C167.42 18.2967 167.966 19.046 167.966 20.3338V27.4518H171.832V19.6547C171.832 16.9621 170.456 15.1123 167.705 15.1123C166.14 15.1123 164.835 15.7679 163.887 17.2196H163.839C163.222 15.9318 162.013 15.1123 160.424 15.1123C158.669 15.1123 157.507 15.9318 156.748 17.1728H156.676V15.4635H152.976V27.4518Z" fill="white" fill-opacity="0.8"/>
<path fill-rule="evenodd" clip-rule="evenodd" d="M24.4407 39.1591C35.3565 39.1591 44.2055 30.4232 44.2055 19.6469C44.2055 8.87068 35.3565 0.134766 24.4407 0.134766C13.525 0.134766 4.67603 8.87068 4.67603 19.6469C4.67603 30.4232 13.525 39.1591 24.4407 39.1591ZM30.6066 9.22437C30.9068 8.17189 29.8722 7.54953 28.9273 8.21408L15.7375 17.4904C14.7128 18.2111 14.8739 19.6469 15.9796 19.6469H19.4528V19.6204H26.222L20.7064 21.5417L18.2749 30.0696C17.9747 31.1221 19.0092 31.7444 19.9542 31.0798L33.144 21.8035C34.1687 21.0828 34.0075 19.6469 32.9019 19.6469H27.6348L30.6066 9.22437Z" fill="white" fill-opacity="0.8"/>
</g>
<defs>
<filter id="filter0_d_164_6110" x="0" y="0" width="176" height="48" filterUnits="userSpaceOnUse" color-interpolation-filters="sRGB">
<feFlood flood-opacity="0" result="BackgroundImageFix"/>
<feColorMatrix in="SourceAlpha" type="matrix" values="0 0 0 0 0 0 0 0 0 0 0 0 0 0 0 0 0 0 127 0" result="hardAlpha"/>
<feOffset dy="4"/>
<feGaussianBlur stdDeviation="2"/>
<feComposite in2="hardAlpha" operator="out"/>
<feColorMatrix type="matrix" values="0 0 0 0 0 0 0 0 0 0 0 0 0 0 0 0 0 0 0.25 0"/>
<feBlend mode="normal" in2="BackgroundImageFix" result="effect1_dropShadow_164_6110"/>
<feBlend mode="normal" in="SourceGraphic" in2="effect1_dropShadow_164_6110" result="shape"/>
</filter>
<clipPath id="clip0_164_6110">
<rect width="168" height="40" fill="white" transform="translate(4)"/>
</clipPath>
</defs>
</svg>
