<svg width="107" height="32" viewBox="0 0 107 32" fill="none" xmlns="http://www.w3.org/2000/svg">
<path d="M0 4C0 1.79086 1.79086 0 4 0H28C30.2091 0 32 1.79086 32 4V28C32 30.2091 30.2091 32 28 32H4C1.79086 32 0 30.2091 0 28V4Z" fill="#BEF264"/>
<rect x="15.3334" y="5.33325" width="1.33333" height="8" rx="0.666667" fill="#022C22"/>
<rect x="15.3334" y="18.6665" width="1.33333" height="8" rx="0.666667" fill="#022C22"/>
<rect x="23.071" y="7.98608" width="1.33333" height="8" rx="0.666667" transform="rotate(45 23.071 7.98608)" fill="#022C22"/>
<rect x="13.6429" y="17.4141" width="1.33333" height="8" rx="0.666667" transform="rotate(45 13.6429 17.4141)" fill="#022C22"/>
<rect x="18.6667" y="16.6665" width="1.33333" height="8" rx="0.666667" transform="rotate(-90 18.6667 16.6665)" fill="#022C22"/>
<rect x="5.33337" y="16.6665" width="1.33333" height="8" rx="0.666667" transform="rotate(-90 5.33337 16.6665)" fill="#022C22"/>
<rect x="17.4142" y="18.3569" width="1.33333" height="8" rx="0.666667" transform="rotate(-45 17.4142 18.3569)" fill="#022C22"/>
<rect x="7.98621" y="8.92896" width="1.33333" height="8" rx="0.666667" transform="rotate(-45 7.98621 8.92896)" fill="#022C22"/>
<path d="M48 26.307V5.33325H50.9363V26.307H48ZM50.5468 17.3183V14.6216H59.4457V17.3183H50.5468ZM50.5468 8.02988V5.33325H60.7041V8.02988H50.5468Z" fill="white"/>
<path d="M62.7685 26.307V5.33325H65.6149V26.307H62.7685Z" fill="white"/>
<path d="M75.4295 26.6666C73.9314 26.6666 72.6131 26.337 71.4745 25.6778C70.3359 24.9987 69.437 24.0698 68.7779 22.8913C68.1387 21.7128 67.8191 20.3545 67.8191 18.8164C67.8191 17.2783 68.1387 15.92 68.7779 14.7415C69.4171 13.563 70.3059 12.6441 71.4445 11.9849C72.5831 11.3058 73.8915 10.9662 75.3696 10.9662C76.8478 10.9662 78.1561 11.3058 79.2947 11.9849C80.4333 12.6441 81.3222 13.563 81.9614 14.7415C82.6006 15.92 82.9202 17.2783 82.9202 18.8164C82.9202 20.3545 82.6006 21.7128 81.9614 22.8913C81.3222 24.0698 80.4333 24.9987 79.2947 25.6778C78.1761 26.337 76.8877 26.6666 75.4295 26.6666ZM75.4295 24.0598C76.3284 24.0598 77.1274 23.8401 77.8265 23.4007C78.5257 22.9412 79.065 22.322 79.4445 21.543C79.844 20.764 80.0438 19.8551 80.0438 18.8164C80.0438 17.7777 79.844 16.8688 79.4445 16.0898C79.065 15.3108 78.5157 14.7015 77.7966 14.2621C77.0775 13.8027 76.2685 13.573 75.3696 13.573C74.4508 13.573 73.6418 13.8027 72.9426 14.2621C72.2435 14.7015 71.6942 15.3108 71.2947 16.0898C70.8952 16.8688 70.6955 17.7777 70.6955 18.8164C70.6955 19.8551 70.8952 20.764 71.2947 21.543C71.6942 22.322 72.2535 22.9412 72.9726 23.4007C73.6917 23.8401 74.5107 24.0598 75.4295 24.0598Z" fill="white"/>
<path d="M98.3944 26.307L103.458 11.3258H106.305L101.211 26.307H98.3944ZM88.297 26.307L93.2708 11.3258H95.8476L90.9337 26.307H88.297ZM88.0873 26.307L82.9937 11.3258H85.8701L90.8139 26.307H88.0873ZM98.3944 26.307L93.4806 11.3258H96.0873L101.031 26.307H98.3944Z" fill="white"/>
</svg>
